<svg xmlns="http://www.w3.org/2000/svg" xmlns:xlink="http://www.w3.org/1999/xlink" width="106" height="106" viewBox="0 0 106 106">
  <defs>
    <filter id="Ellipse_8" x="0" y="0" width="106" height="106" filterUnits="userSpaceOnUse">
      <feOffset input="SourceAlpha"/>
      <feGaussianBlur stdDeviation="10" result="blur"/>
      <feFlood flood-opacity="0.161"/>
      <feComposite operator="in" in2="blur"/>
      <feComposite in="SourceGraphic"/>
    </filter>
  </defs>
  <g id="Group_14878" data-name="Group 14878" transform="translate(76.263 76) rotate(180)">
    <g transform="matrix(-1, 0, 0, -1, 76.26, 76)" filter="url(#Ellipse_8)">
      <circle id="Ellipse_8-2" data-name="Ellipse 8" cx="23" cy="23" r="23" transform="translate(76 76) rotate(180)" fill="#003777"/>
    </g>
    <path id="Path_304" data-name="Path 304" d="M6.086,5.064C7.318,6.245,17.334,16.21,18.546,17.372L17.48,18.426c-.187-.18-.407-.388-.623-.6-.919-.9-10.627-10.6-11.544-11.5-.25-.247-.246-.244-.507.008Q3.134,7.949,1.454,9.558a.376.376,0,0,1-.313.061c-.267-.082-.519-.213-.785-.3A.329.329,0,0,1,.1,8.955C.09,7.536.069,6.117.051,4.7.036,3.5.024,2.3,0,1.1A.759.759,0,0,1,.2.588,1.553,1.553,0,0,1,1.614,0C4.067.034,6.522.019,8.976.009c.253,0,.383.074.451.316a5.116,5.116,0,0,0,.251.691.362.362,0,0,1-.1.461C8.485,2.586,7.4,3.7,6.308,4.82,6.254,4.876,6.2,4.935,6.086,5.064ZM7.319,1.537H1.559V7.3Z" transform="translate(36.001 22.887) rotate(135)" fill="#fff"/>
  </g>
</svg>
